HIERARCHY
ROOT SimulationBone
{
	OFFSET 0.000000 0.000000 0.000000
	CHANNELS 6 Xposition Yposition Zposition Zrotation Yrotation Xrotation 
	JOINT Hips
	{
		OFFSET 0.000000 0.000000 0.000000
		CHANNELS 6 Xposition Yposition Zposition Zrotation Yrotation Xrotation 
		JOINT RightUpLeg
		{
			OFFSET 0.103456 1.857832 10.548506
			CHANNELS 3 Zrotation Yrotation Xrotation
			JOINT RightLeg
			{
				OFFSET 43.499996 -0.000050 0.000004
				CHANNELS 3 Zrotation Yrotation Xrotation
				JOINT RightFoot
				{
					OFFSET 42.372196 0.000023 -0.000001
					CHANNELS 3 Zrotation Yrotation Xrotation
					JOINT RightToe
					{
						OFFSET 17.299999 -0.000001 0.000005
						CHANNELS 3 Zrotation Yrotation Xrotation
						End Site
						{
							OFFSET 0.000000 0.000000 0.000000
						}
					}
				}
			}
		}
		JOINT LeftUpLeg
		{
			OFFSET 0.103461 1.857838 -10.548502
			CHANNELS 3 Zrotation Yrotation Xrotation
			JOINT LeftLeg
			{
				OFFSET 43.500053 -0.000023 0.000017
				CHANNELS 3 Zrotation Yrotation Xrotation
				JOINT LeftFoot
				{
					OFFSET 42.372261 -0.000019 0.000013
					CHANNELS 3 Zrotation Yrotation Xrotation
					JOINT LeftToe
					{
						OFFSET 17.299999 -0.000002 0.000004
						CHANNELS 3 Zrotation Yrotation Xrotation
						End Site
						{
							OFFSET 0.000000 0.000000 0.000000
						}
					}
				}
			}
		}
		JOINT Spine
		{
			OFFSET 6.901962 -2.603720 0.000005
			CHANNELS 3 Zrotation Yrotation Xrotation
			JOINT Spine1
			{
				OFFSET 12.588104 -0.000017 -0.000004
				CHANNELS 3 Zrotation Yrotation Xrotation
				JOINT Spine2
				{
					OFFSET 12.343203 0.000008 0.000001
					CHANNELS 3 Zrotation Yrotation Xrotation
					JOINT Neck
					{
						OFFSET 25.832893 0.000002 -0.000003
						CHANNELS 3 Zrotation Yrotation Xrotation
						JOINT Head
						{
							OFFSET 11.766610 0.000004 -0.000002
							CHANNELS 3 Zrotation Yrotation Xrotation
							End Site
							{
								OFFSET 0.000000 0.000000 0.000000
							}
						}
					}
					JOINT RightShoulder
					{
						OFFSET 19.745901 -1.480358 6.000100
						CHANNELS 3 Zrotation Yrotation Xrotation
						JOINT RightArm
						{
							OFFSET 11.284128 -0.000004 -0.000015
							CHANNELS 3 Zrotation Yrotation Xrotation
							JOINT RightForeArm
							{
								OFFSET 33.000053 0.000025 0.000029
								CHANNELS 3 Zrotation Yrotation Xrotation
								JOINT RightHand
								{
									OFFSET 25.200005 0.000009 -0.000002
									CHANNELS 3 Zrotation Yrotation Xrotation
									End Site
									{
										OFFSET 0.000000 0.000000 0.000000
									}
								}
							}
						}
					}
					JOINT LeftShoulder
					{
						OFFSET 19.746098 -1.480389 -6.000077
						CHANNELS 3 Zrotation Yrotation Xrotation
						JOINT LeftArm
						{
							OFFSET 11.284138 -0.000023 -0.000010
							CHANNELS 3 Zrotation Yrotation Xrotation
							JOINT LeftForeArm
							{
								OFFSET 33.000103 0.000022 0.000003
								CHANNELS 3 Zrotation Yrotation Xrotation
								JOINT LeftHand
								{
									OFFSET 25.199776 0.000131 0.000429
									CHANNELS 3 Zrotation Yrotation Xrotation
									End Site
									{
										OFFSET 0.000000 0.000000 0.000000
									}
								}
							}
						}
					}
				}
			}
		}
	}
}
MOTION
Frames: 7
Frame Time: 0.016667
92.461885 0.000000 -382.186201 180.000000 78.409882 180.000000 -0.172211 91.379501 -1.550949 93.481024 -2.731039 -179.326358 177.793963 0.739294 -179.330373 -20.679327 -2.349430 -8.557033 84.397908 5.431049 -3.226523 21.454557 0.003105 0.000016 -178.561581 0.537003 -168.181756 -17.897858 1.834634 8.929960 88.563476 -6.072591 0.627084 21.454550 -0.003084 0.000002 7.844786 0.054417 -0.284109 5.676437 0.122660 -0.565251 5.358357 0.119116 -0.565980 -2.056295 4.766682 1.761304 -9.344856 -7.173148 5.257137 157.710119 -72.593063 21.577726 -3.184294 58.517978 41.073488 -43.176719 -23.113828 2.106930 10.581225 -6.921715 10.310829 -167.766602 69.738694 13.920405 -8.326118 -59.401552 -38.973516 -35.643375 20.368900 -1.697117 15.066824 12.767279 7.746807 
92.449666 0.000000 -382.112703 180.000000 78.311975 180.000000 -0.055363 91.294946 -1.447101 93.598004 -2.506772 -179.665073 177.558348 0.438190 179.292770 -21.552377 -1.957545 -7.898106 84.859377 4.960169 -3.287114 21.454559 0.003100 0.000020 -178.461020 0.415409 -167.716146 -18.006201 1.909529 8.495731 88.697688 -5.809639 0.410239 21.454552 -0.003104 -0.000000 7.861041 0.099184 -0.240059 5.708815 0.210083 -0.474947 5.390733 0.207071 -0.476225 -1.783493 4.762209 1.742957 -9.289728 -7.191810 5.228631 157.325432 -72.924236 21.952692 -3.392329 57.281016 41.815063 -43.491161 -23.427242 2.137719 11.232194 -6.981214 8.378288 -168.384984 69.967204 13.281002 -8.973955 -57.166464 -41.636132 -34.867655 20.761473 -1.706221 14.545018 9.993166 9.390793 
92.436361 0.000000 -382.049791 180.000000 78.249115 180.000000 0.014589 91.198700 -1.344821 93.672581 -2.249739 -179.919474 177.185175 0.110304 178.537539 -22.541011 -1.739804 -7.567547 85.348472 4.713010 -3.397290 21.454558 0.003107 0.000020 -178.458022 0.203297 -167.572353 -18.162784 1.971149 8.288636 88.839539 -5.690201 0.258636 21.454553 -0.003104 -0.000001 7.873795 0.157826 -0.202502 5.734205 0.325494 -0.396974 5.416112 0.322954 -0.398947 -1.530199 4.685108 1.727589 -9.223879 -7.230156 5.187563 156.966310 -73.170686 22.305987 -3.765521 55.980908 42.035189 -43.665747 -23.411734 2.141429 11.844012 -6.823136 7.662227 -168.919607 70.227633 12.728773 -9.854191 -54.936033 -43.833817 -33.859743 20.767996 -1.681160 14.055458 7.384584 10.321154 
92.421306 0.000000 -381.997641 180.000000 78.219652 180.000000 0.053679 91.086584 -1.242683 93.737125 -1.953556 179.895635 176.700972 -0.242700 178.273298 -23.685461 -1.645504 -7.493031 85.869090 4.638383 -3.562020 21.454555 0.003116 0.000019 -178.511584 -0.095153 -167.669605 -18.374002 2.014812 8.253687 88.997867 -5.678118 0.163002 21.454553 -0.003095 -0.000001 7.889842 0.228598 -0.168235 5.766225 0.465292 -0.324954 5.448117 0.463194 -0.327759 -1.297688 4.578084 1.717441 -9.166770 -7.283984 5.149231 156.611755 -73.332077 22.659282 -4.237566 54.728796 41.862601 -43.588210 -23.284644 2.129686 12.312387 -6.484533 7.775983 -169.362612 70.503002 12.271736 -10.830012 -52.864251 -45.303067 -32.724105 20.531052 -1.639296 13.678524 5.110885 10.534818 
92.403840 0.000000 -381.956431 180.000000 78.221950 180.000000 0.077925 90.954422 -1.139097 93.823988 -1.611448 179.765782 176.133134 -0.617709 178.369243 -25.023585 -1.623075 -7.603561 86.424876 4.685315 -3.786946 21.454555 0.003119 0.000017 -178.580323 -0.476504 -167.927249 -18.646490 2.035942 8.335961 89.181000 -5.737194 0.114237 21.454553 -0.003088 -0.000000 7.915979 0.309745 -0.134040 5.818505 0.625837 -0.252444 5.500383 0.624179 -0.256211 -1.087237 4.483826 1.715152 -9.137902 -7.349147 5.128984 156.239701 -73.407891 23.035315 -4.759421 53.635486 41.409004 -43.147093 -23.263115 2.115992 12.538470 -5.990764 8.329666 -169.703494 70.776248 11.920551 -11.746605 -51.096344 -45.780554 -31.563785 20.193622 -1.593861 13.485812 3.345532 10.018192 
92.383302 0.000000 -381.926337 180.000000 78.254386 180.000000 0.100907 90.805101 -1.034422 93.954324 -1.232302 179.681365 175.500139 -1.000377 178.677759 -26.578425 -1.620581 -7.818653 86.980339 4.796509 -4.070284 21.454557 0.003109 0.000017 -178.625877 -0.920454 -168.265305 -18.968046 2.033505 8.482530 89.386029 -5.833171 0.101477 21.454553 -0.003089 0.000000 7.956208 0.397118 -0.098459 5.899088 0.798757 -0.176642 5.580957 0.797547 -0.181459 -0.898061 4.429747 1.721669 -9.157030 -7.414024 5.133639 155.837640 -73.399208 23.446946 -5.301987 52.775566 40.751890 -42.282289 -23.485835 2.106625 12.493863 -5.388694 8.976488 -169.932757 71.030493 11.684786 -12.481916 -49.718631 -45.129747 -30.469777 19.878560 -1.551590 13.558915 2.254349 8.833367 
92.359028 0.000000 -381.907537 180.000000 78.315353 180.000000 0.126482 90.669769 -0.937091 94.104622 -0.888294 179.650536 174.782041 -1.331493 178.984192 -28.317210 -1.585667 -8.015202 87.344082 4.887424 -4.378916 21.454560 0.003100 0.000017 -178.622110 -1.339598 -168.605310 -19.250412 2.020470 8.648081 89.566127 -5.939553 0.106433 21.454553 -0.003092 0.000000 8.003320 0.477026 -0.067173 5.993533 0.956931 -0.109668 5.675389 0.956115 -0.115449 -0.721158 4.382208 1.729959 -9.244720 -7.437042 5.135641 155.431526 -73.314215 23.867245 -5.851597 52.076705 39.893221 -41.144611 -23.777650 2.091766 12.432876 -4.852330 9.555380 -170.052093 71.249887 11.562479 -13.052462 -48.608915 -43.758227 -29.493842 19.626841 -1.515623 14.064570 1.952173 7.364963 
